<svg width="40" height="36" viewBox="0 0 40 36" fill="none" xmlns="http://www.w3.org/2000/svg">
<g clip-path="url(#clip0)">
<rect width="40" height="36" fill="white"/>
<path d="M37.8064 5.17669C36.3998 3.90988 34.4914 3.19838 32.5015 3.19898C30.5125 3.19476 28.604 3.90603 27.2005 5.1745L17.5166 13.8901C15.6006 15.6172 14.8681 18.1399 15.6004 20.4899C15.8149 21.174 16.6049 21.5722 17.365 21.3792C18.1252 21.1862 18.5676 20.4752 18.3532 19.791C17.9017 18.3378 18.3547 16.7784 19.5386 15.71L29.2225 6.99566C31.0331 5.36582 33.9689 5.36552 35.7798 6.99506C37.5907 8.62452 37.5911 11.2667 35.7805 12.8966L26.0966 21.6121C25.462 22.184 24.656 22.5771 23.7772 22.7434C23.004 22.8883 22.5077 23.5698 22.6686 24.2657C22.8071 24.8641 23.394 25.2923 24.0731 25.2904C24.1731 25.2905 24.2728 25.281 24.3706 25.2621C25.7909 24.9925 27.0932 24.3567 28.1186 23.432L37.8026 14.7177C40.7311 12.084 40.7327 7.81235 37.8064 5.17669Z" fill="#4E4E4E"/>
<path d="M24.357 15.5452C24.1425 14.8611 23.3525 14.4629 22.5924 14.6559C21.8322 14.8489 21.3898 15.5599 21.6042 16.244C22.0557 17.6973 21.6027 19.2567 20.4188 20.3251L10.7348 29.0407C8.92426 30.6705 5.98845 30.6708 4.17752 29.0413C2.36659 27.4118 2.36625 24.7696 4.17677 23.1398L13.8608 14.4229C14.4944 13.8511 15.2994 13.458 16.1774 13.2916C16.9518 13.1521 17.4541 12.4741 17.2991 11.7772C17.1442 11.0802 16.3909 10.6282 15.6165 10.7676C15.607 10.7693 15.5976 10.7711 15.5883 10.7729C14.1677 11.0428 12.8649 11.6787 11.8388 12.6031L2.15477 21.3187C-0.750703 23.974 -0.714338 28.2463 2.23596 30.8612C5.15408 33.4475 9.83823 33.4478 12.7568 30.8618L22.4407 22.1449C24.3568 20.4178 25.0893 17.8951 24.357 15.5452Z" fill="#4E4E4E"/>
</g>
<defs>
<clipPath id="clip0">
<rect width="40" height="36" fill="white"/>
</clipPath>
</defs>
</svg>
