<svg width="40" height="40" viewBox="0 0 40 40" fill="none" xmlns="http://www.w3.org/2000/svg">
<path d="M39.1209 6.56534C37.9095 4.40393 35.6121 3.06197 33.1255 3.06197C31.9554 3.06197 30.7963 3.36517 29.7761 3.93851L16.8735 11.1811L18.3578 13.8266L31.2611 6.58395C31.8317 6.26425 32.4765 6.09518 33.1276 6.09518C34.517 6.09518 35.7998 6.84385 36.4762 8.04972C36.976 8.94072 37.0984 9.97398 36.8206 10.9598C36.5443 11.9456 35.9008 12.7651 35.0098 13.2649L23.3138 19.8283C23.091 18.4031 22.4263 17.0887 21.3861 16.0479C19.5519 14.2157 16.6445 13.5674 14.2027 14.444L13.1467 14.8241L14.1725 17.6772L15.2325 17.2991C16.5965 16.8027 18.2196 17.1725 19.2419 18.1928C19.8317 18.7833 20.2051 19.5313 20.3233 20.3418C20.2738 20.3302 20.2243 20.3177 20.1769 20.304C19.189 20.0263 18.3709 19.3822 17.8704 18.4877L17.3191 17.5135L14.6716 19.0012L15.2264 19.9754C16.1229 21.5751 17.5886 22.7301 19.3568 23.2264C19.4179 23.2423 19.4798 23.2594 19.5417 23.2739C19.4483 23.3921 19.3486 23.5049 19.2427 23.6108L9.57401 33.2801C8.85081 34.0026 7.88834 34.4 6.86464 34.4C5.84027 34.4 4.8778 34.0026 4.15595 33.2801C3.4341 32.5576 3.03676 31.5964 3.03676 30.5714C3.03676 29.547 3.4341 28.5853 4.15595 27.8635L12.5535 19.4666L10.4079 17.3211L2.01112 25.7179C0.714323 27.0157 0 28.7392 0 30.5713C0 32.4048 0.714323 34.1276 2.01086 35.4256C3.30816 36.7229 5.03096 37.4358 6.86447 37.4358C8.69798 37.4358 10.4208 36.7229 11.7181 35.4256L21.3889 25.7569C22.0969 25.0461 22.6414 24.1867 22.9824 23.2442C23.5427 23.095 24.0755 22.8805 24.5705 22.6014L36.4948 15.9102C38.0911 15.0131 39.2447 13.5467 39.7404 11.7806C40.2366 10.0137 40.0167 8.16094 39.1209 6.56534Z" fill="#4E4E4E"/>
<path d="M14.646 11.9902C15.0268 11.9207 15.2812 11.555 15.2118 11.1734L13.7653 3.14367C13.6959 2.76148 13.3287 2.50707 12.9479 2.57516C12.5664 2.64459 12.3113 3.0103 12.3807 3.39325L13.8279 11.4216C13.8966 11.8046 14.2631 12.0583 14.646 11.9902Z" fill="#4E4E4E"/>
<path d="M3.68419 16.2195L11.7133 14.7717C12.0955 14.7022 12.3499 14.3365 12.2804 13.9549C12.211 13.572 11.8453 13.317 11.4644 13.3864L3.43461 14.8349C3.05376 14.9023 2.79868 15.2701 2.86812 15.6517C2.9362 16.034 3.30334 16.2883 3.68419 16.2195Z" fill="#4E4E4E"/>
</svg>
